<svg xmlns="http://www.w3.org/2000/svg" width="375" viewBox="0 0 375 375" height="375" version="1.0"><defs><clipPath id="a"><path d="M 55 13 L 349 13 L 349 328 L 55 328 Z M 55 13"/></clipPath><clipPath id="b"><path d="M 26.667969 49.753906 L 119.421875 -25.199219 L 374.914062 290.972656 L 282.164062 365.925781 Z M 26.667969 49.753906"/></clipPath><clipPath id="c"><path d="M 26.667969 49.753906 L 119.421875 -25.199219 L 374.914062 290.972656 L 282.164062 365.925781 Z M 26.667969 49.753906"/></clipPath></defs><g clip-path="url(#a)"><g clip-path="url(#b)"><g clip-path="url(#c)"><path fill="#E300AB" d="M 135.730469 76.296875 L 135.847656 75.207031 Z M 335.660156 315.082031 L 332.097656 316.960938 C 327.484375 319.421875 322.695312 321.476562 317.726562 323.125 C 312.761719 324.773438 307.695312 325.988281 302.519531 326.773438 C 297.347656 327.558594 292.144531 327.898438 286.910156 327.800781 C 281.679688 327.699219 276.492188 327.160156 271.351562 326.175781 C 268.800781 325.636719 266.300781 324.921875 263.847656 324.039062 C 261.398438 323.152344 259.019531 322.101562 256.710938 320.886719 C 254.402344 319.671875 252.191406 318.304688 250.074219 316.785156 C 247.953125 315.265625 245.949219 313.605469 244.0625 311.808594 C 242.171875 310.011719 240.414062 308.09375 238.789062 306.054688 C 237.164062 304.015625 235.6875 301.871094 234.359375 299.628906 C 233.03125 297.386719 231.863281 295.0625 230.855469 292.65625 C 229.84375 290.253906 229.007812 287.792969 228.339844 285.269531 C 224.53125 266.019531 232.882812 246.910156 238.378906 228.210938 C 239.171875 226.320312 239.78125 224.371094 240.210938 222.367188 C 240.636719 220.359375 240.875 218.332031 240.921875 216.28125 C 240.96875 214.230469 240.824219 212.195312 240.488281 210.171875 C 240.152344 208.148438 239.632812 206.171875 238.925781 204.246094 C 238.25 203.230469 237.511719 202.261719 236.703125 201.347656 C 235.898438 200.433594 235.035156 199.578125 234.109375 198.78125 C 233.1875 197.988281 232.214844 197.257812 231.191406 196.59375 C 230.167969 195.933594 229.105469 195.34375 228 194.824219 C 226.894531 194.308594 225.761719 193.871094 224.597656 193.507812 C 223.433594 193.144531 222.25 192.867188 221.050781 192.667969 C 219.847656 192.46875 218.636719 192.351562 217.417969 192.316406 C 216.203125 192.285156 214.988281 192.335938 213.777344 192.46875 C 204 192.691406 194.484375 195.695312 184.695312 196.027344 C 182.019531 196.0625 179.355469 195.917969 176.695312 195.597656 C 174.039062 195.277344 171.414062 194.78125 168.820312 194.113281 C 166.230469 193.445312 163.691406 192.605469 161.210938 191.601562 C 158.726562 190.597656 156.324219 189.433594 153.996094 188.109375 C 151.667969 186.785156 149.433594 185.3125 147.300781 183.695312 C 145.167969 182.074219 143.152344 180.324219 141.25 178.4375 C 139.347656 176.550781 137.578125 174.546875 135.941406 172.425781 C 134.304688 170.304688 132.816406 168.085938 131.472656 165.769531 C 130.179688 163.421875 129.007812 161.011719 127.96875 158.542969 C 126.925781 156.074219 126.015625 153.554688 125.238281 150.988281 C 124.464844 148.425781 123.824219 145.824219 123.320312 143.191406 C 122.816406 140.558594 122.453125 137.910156 122.226562 135.238281 C 122 132.566406 121.917969 129.894531 121.972656 127.214844 C 122.03125 124.535156 122.226562 121.867188 122.566406 119.207031 C 122.902344 116.550781 123.378906 113.917969 123.992188 111.3125 C 124.605469 108.703125 125.355469 106.136719 126.238281 103.605469 C 130.296875 94.28125 133.480469 84.667969 135.785156 74.761719 C 136.046875 73.519531 136.214844 72.265625 136.289062 70.996094 C 136.359375 69.730469 136.339844 68.464844 136.222656 67.199219 C 136.105469 65.9375 135.894531 64.6875 135.589844 63.457031 C 135.289062 62.222656 134.894531 61.019531 134.410156 59.847656 C 133.925781 58.671875 133.355469 57.542969 132.699219 56.453125 C 132.046875 55.363281 131.3125 54.332031 130.503906 53.351562 C 129.695312 52.375 128.816406 51.460938 127.871094 50.617188 C 126.921875 49.769531 125.917969 48.996094 124.855469 48.300781 C 122.652344 47.550781 120.394531 47.054688 118.082031 46.8125 C 115.769531 46.570312 113.457031 46.585938 111.148438 46.867188 C 108.839844 47.144531 106.589844 47.675781 104.402344 48.460938 C 102.214844 49.246094 100.140625 50.261719 98.183594 51.515625 C 94.273438 54.046875 90.125 56.109375 85.746094 57.699219 C 81.363281 59.285156 76.859375 60.359375 72.230469 60.921875 C 71.148438 60.941406 70.070312 60.859375 69 60.671875 C 67.929688 60.484375 66.886719 60.195312 65.875 59.808594 C 64.859375 59.417969 63.890625 58.9375 62.972656 58.359375 C 62.050781 57.785156 61.191406 57.125 60.398438 56.382812 C 59.605469 55.640625 58.890625 54.828125 58.253906 53.945312 C 57.617188 53.066406 57.074219 52.132812 56.617188 51.144531 C 56.160156 50.160156 55.804688 49.140625 55.546875 48.082031 C 55.289062 47.027344 55.132812 45.957031 55.082031 44.875 C 55.160156 32.648438 70.257812 25.832031 79.835938 22.28125 C 99.503906 14.957031 121.894531 9.523438 140.84375 18.4375 C 164.136719 29.519531 173.59375 58.960938 167.777344 83.796875 C 164.941406 96.058594 159.171875 107.398438 156.792969 119.488281 C 156.367188 120.988281 156.039062 122.507812 155.804688 124.046875 C 155.570312 125.589844 155.4375 127.140625 155.402344 128.699219 C 155.367188 130.257812 155.429688 131.8125 155.59375 133.363281 C 155.753906 134.914062 156.015625 136.449219 156.375 137.964844 C 156.734375 139.484375 157.1875 140.972656 157.734375 142.433594 C 158.285156 143.890625 158.921875 145.3125 159.652344 146.691406 C 160.382812 148.070312 161.195312 149.394531 162.09375 150.671875 C 162.992188 151.945312 163.96875 153.160156 165.023438 154.308594 C 179.957031 167.863281 203.425781 158.464844 223.601562 159.410156 C 225.457031 159.585938 227.300781 159.859375 229.132812 160.222656 C 230.960938 160.585938 232.769531 161.039062 234.554688 161.582031 C 236.34375 162.125 238.097656 162.753906 239.820312 163.472656 C 241.542969 164.1875 243.226562 164.992188 244.871094 165.875 C 246.515625 166.761719 248.109375 167.722656 249.660156 168.769531 C 251.207031 169.8125 252.699219 170.929688 254.136719 172.121094 C 255.574219 173.3125 256.949219 174.574219 258.257812 175.902344 C 259.570312 177.230469 260.8125 178.621094 261.988281 180.074219 C 263.160156 181.527344 264.261719 183.035156 265.285156 184.597656 C 266.308594 186.15625 267.25 187.765625 268.117188 189.421875 C 268.980469 191.078125 269.757812 192.769531 270.453125 194.503906 C 271.148438 196.234375 271.757812 198 272.277344 199.792969 C 272.796875 201.585938 273.226562 203.398438 273.566406 205.234375 C 273.90625 207.070312 274.15625 208.917969 274.3125 210.777344 C 274.46875 212.636719 274.53125 214.5 274.5 216.367188 C 274.472656 218.230469 274.351562 220.09375 274.136719 221.945312 C 272.101562 234.953125 265.453125 246.804688 262.875 259.753906 C 260.296875 272.703125 263.882812 288.847656 275.734375 294.023438 C 277.9375 294.742188 280.191406 295.230469 282.496094 295.484375 C 284.800781 295.742188 287.105469 295.757812 289.410156 295.542969 C 291.71875 295.324219 293.980469 294.871094 296.191406 294.191406 C 298.40625 293.507812 300.527344 292.609375 302.554688 291.488281 C 310.730469 286.933594 319.464844 284.0625 328.753906 282.878906 C 337.972656 282.707031 348.265625 289.042969 348.34375 298.253906 C 348.125 300.089844 347.671875 301.871094 346.984375 303.589844 C 346.292969 305.308594 345.390625 306.90625 344.277344 308.386719 C 343.164062 309.863281 341.875 311.171875 340.414062 312.304688 C 338.953125 313.441406 337.367188 314.367188 335.660156 315.082031 Z M 335.660156 315.082031"/></g></g></g></svg>