<svg xmlns="http://www.w3.org/2000/svg" xmlns:xlink="http://www.w3.org/1999/xlink" width="483" height="441" viewBox="0 0 483 441">
  <metadata><?xpacket begin="﻿" id="W5M0MpCehiHzreSzNTczkc9d"?>
<x:xmpmeta xmlns:x="adobe:ns:meta/" x:xmptk="Adobe XMP Core 5.6-c142 79.160924, 2017/07/13-01:06:39        ">
   <rdf:RDF xmlns:rdf="http://www.w3.org/1999/02/22-rdf-syntax-ns#">
      <rdf:Description rdf:about=""/>
   </rdf:RDF>
</x:xmpmeta>
                                                                                                    
                                                                                                    
                                                                                                    
                                                                                                    
                                                                                                    
                                                                                                    
                                                                                                    
                                                                                                    
                                                                                                    
                                                                                                    
                                                                                                    
                                                                                                    
                                                                                                    
                                                                                                    
                                                                                                    
                                                                                                    
                                                                                                    
                                                                                                    
                                                                                                    
                                                                                                    
                           
<?xpacket end="w"?></metadata>
<defs>
    <style>
      .cls-1 {
        filter: url(#filter);
      }

      .cls-2 {
        fill-rule: evenodd;
      }
    </style>
    <filter id="filter" filterUnits="userSpaceOnUse">
      <feFlood result="flood"/>
      <feComposite result="composite" operator="in" in2="SourceGraphic"/>
      <feBlend result="blend" in2="SourceGraphic"/>
    </filter>
  </defs>
  <g id="hand" class="cls-1">
    <path id="f5" class="cls-2" d="M43.421,258.715s-37.567-.074-37.466-35.833c0.1-34.934,37.667-35.305,37.667-35.305l286.334,0.759s28.1,0.168,28,35.634c-0.1,35.825-28.2,35.5-28.2,35.5Z"/>
    <path id="f4" class="cls-2" d="M122.085,346.714s-37.567-.074-37.466-35.833c0.1-34.934,37.667-35.3,37.667-35.3l228.7,0.605s28.1,0.168,28,35.634c-0.1,35.825-28.2,35.5-28.2,35.5Z"/>
    <path id="f3" class="cls-2" d="M105.323,168.528s-37.567-.074-37.465-35.832c0.1-34.935,37.667-35.305,37.667-35.305L334.226,98s28.1,0.168,28,35.634c-0.1,35.825-28.2,35.5-28.2,35.5Z"/>
    <path id="f2" class="cls-2" d="M293.872,435.06s-37.567-.074-37.466-35.833c0.1-34.934,37.667-35.3,37.667-35.3l157.769,0.418s28.1,0.168,28,35.634c-0.1,35.825-28.2,35.5-28.2,35.5Z"/>
    <path id="f1" class="cls-2" d="M178.283,78.714s-37.566-.075-37.465-35.833c0.1-34.934,37.666-35.3,37.666-35.3l175.5,0.465s28.1,0.168,28,35.634c-0.1,35.825-28.2,35.5-28.2,35.5Z"/>
  </g>
</svg>
