<svg xmlns="http://www.w3.org/2000/svg" width="439" height="438" viewBox="0 0 439 438">
  <metadata><?xpacket begin="﻿" id="W5M0MpCehiHzreSzNTczkc9d"?>
<x:xmpmeta xmlns:x="adobe:ns:meta/" x:xmptk="Adobe XMP Core 5.6-c142 79.160924, 2017/07/13-01:06:39        ">
   <rdf:RDF xmlns:rdf="http://www.w3.org/1999/02/22-rdf-syntax-ns#">
      <rdf:Description rdf:about=""/>
   </rdf:RDF>
</x:xmpmeta>
                                                                                                    
                                                                                                    
                                                                                                    
                                                                                                    
                                                                                                    
                                                                                                    
                                                                                                    
                                                                                                    
                                                                                                    
                                                                                                    
                                                                                                    
                                                                                                    
                                                                                                    
                                                                                                    
                                                                                                    
                                                                                                    
                                                                                                    
                                                                                                    
                                                                                                    
                                                                                                    
                           
<?xpacket end="w"?></metadata>
<defs>
    <style>
      .cls-1 {
        fill-rule: evenodd;
      }
    </style>
  </defs>
  <path id="gear" class="cls-1" d="M394.608,224.541a58.532,58.532,0,0,0,38.343,56.793,218.81,218.81,0,0,1-26.036,56.345,58.543,58.543,0,0,0-81.239,74.7,218.508,218.508,0,0,1-56.5,20.774,58.519,58.519,0,0,0-107.212-3.33,218.294,218.294,0,0,1-49.995-21.264,58.522,58.522,0,0,0-75.432-72.564A218.788,218.788,0,0,1,7.19,264.244a58.531,58.531,0,0,0,32.929-50.815,58.506,58.506,0,0,0-30.042-52.986,218.672,218.672,0,0,1,25.557-58.509A58.539,58.539,0,0,0,110.9,28.6,218.86,218.86,0,0,1,167.454,5.214a58.521,58.521,0,0,0,53.364,36.439A58.543,58.543,0,0,0,275.977,4.91a218.2,218.2,0,0,1,48.9,18.758A58.524,58.524,0,0,0,406.559,98.25a218.876,218.876,0,0,1,30.334,71.879A58.562,58.562,0,0,0,394.608,224.541ZM224.193,180.009A38.952,38.952,0,1,0,261.9,220.168,38.945,38.945,0,0,0,224.193,180.009Z"/>
</svg>
