<svg height="682.66669pt" viewBox="-21 -21 682.66669 682.66669" width="682.66669pt" xmlns="http://www.w3.org/2000/svg"><path d="m451.660156 183.144531c-2.308594-3.519531-6.238281-5.644531-10.453125-5.644531h-242.125c-4.203125 0-8.125 2.113281-10.441406 5.621094l-60.867187 92.394531c-.003907.007813-.003907.007813-.003907.011719-.355469.535156-.679687 1.105468-.953125 1.703125-2.027344 4.46875-1.25 9.707031 1.976563 13.398437l181.824219 207.609375c2.375 2.707031 5.804687 4.261719 9.402343 4.261719 3.605469 0 7.03125-1.554688 9.402344-4.261719l181.78125-207.609375c3.230469-3.691406 4.007813-8.929687 1.980469-13.398437-.273438-.59375-.589844-1.15625-.941406-1.6875h.007812zm26.992188 86.746094h-74.894532l37.449219-57.097656zm-202.535156 25h87.8125l-43.90625 149.90625zm67.050781-92.390625h74.894531l-37.445312 57.101562zm14.300781 67.390625h-74.894531l37.445312-57.097656zm-97.917969-10.476563-37.324219-56.914062h74.648438zm-60.492187-46.65625 37.46875 57.132813h-75.117188zm51.011718 82.132813 42.355469 144.632813-126.664062-144.632813zm97.550782 144.617187 42.359375-144.617187h84.261719zm0 0"/><path d="m546.273438 93.726562c-60.4375-60.441406-140.800782-93.726562-226.273438-93.726562s-165.835938 33.285156-226.273438 93.726562c-60.441406 60.4375-93.726562 140.800782-93.726562 226.273438s33.285156 165.835938 93.726562 226.273438c60.4375 60.441406 140.800782 93.726562 226.273438 93.726562s165.835938-33.285156 226.273438-93.726562c60.441406-60.4375 93.726562-140.800782 93.726562-226.273438s-33.285156-165.835938-93.726562-226.273438zm-226.273438 521.273438c-162.664062 0-295-132.335938-295-295s132.335938-295 295-295 295 132.335938 295 295-132.335938 295-295 295zm0 0"/><path d="m150.308594 162.75c3.210937 0 6.425781-1.222656 8.871094-3.664062l.175781-.175782c4.859375-4.910156 4.789062-12.792968-.117188-17.652344-4.90625-4.851562-12.851562-4.78125-17.710937.125-.003906.003907-.066406.066407-.074219.070313-4.875 4.878906-4.851563 12.761719.027344 17.644531 2.429687 2.433594 5.628906 3.652344 8.828125 3.652344zm0 0"/><path d="m498.546875 141.453125c-41.144531-41.140625-95.632813-66.960937-153.425781-72.707031-56.992188-5.667969-114.6875 8.292968-162.449219 39.304687-5.792969 3.761719-7.4375 11.5-3.679687 17.292969 3.761718 5.789062 11.5 7.433594 17.292968 3.675781 89.402344-58.046875 209.085938-45.386719 284.582032 30.113281 88.703124 88.703126 88.703124 233.03125 0 321.730469-88.699219 88.707031-233.03125 88.707031-321.730469 0-75.605469-75.597656-88.199219-195.390625-29.949219-284.839843 3.773438-5.785157 2.136719-13.527344-3.648438-17.296876-5.789062-3.765624-13.53125-2.128906-17.296874 3.65625-31.117188 47.777344-45.148438 105.511719-39.511719 162.574219 5.714843 57.859375 31.542969 112.40625 72.722656 153.589844 49.230469 49.222656 113.890625 73.835937 178.546875 73.835937 64.664062 0 129.320312-24.613281 178.546875-73.835937 98.449219-98.453125 98.449219-258.640625 0-357.09375zm0 0"/></svg>