<?xml version="1.0" standalone="no"?>
<!DOCTYPE svg PUBLIC "-//W3C//DTD SVG 20010904//EN"
 "http://www.w3.org/TR/2001/REC-SVG-20010904/DTD/svg10.dtd">
<svg version="1.0" xmlns="http://www.w3.org/2000/svg"
 width="800.000000pt" height="800.000000pt" viewBox="0 0 800.000000 800.000000"
 preserveAspectRatio="xMidYMid meet">

<g transform="translate(0.000000,800.000000) scale(0.100000,-0.100000)"
fill="#000000" stroke="none">
<path d="M1012 4809 c-80 -10 -160 -33 -239 -69 -200 -91 -371 -286 -439 -503
l-18 -58 484 -484 c278 -278 493 -485 503 -485 36 0 178 62 251 110 212 139
345 358 371 613 l7 67 -261 0 -261 0 0 -75 0 -75 175 0 175 0 -6 -27 c-13 -53
-71 -168 -117 -230 -56 -75 -137 -141 -232 -189 l-69 -35 -423 423 c-233 233
-423 429 -423 436 0 8 17 46 37 86 56 106 174 221 283 274 124 61 191 75 330
70 185 -8 320 -67 452 -200 76 -75 72 -75 137 -15 l42 38 -20 28 c-37 51 -150
149 -221 192 -91 54 -213 95 -320 108 -93 12 -107 12 -198 0z"/>
<path d="M295 3923 c46 -406 333 -690 748 -738 31 -3 57 -2 57 2 0 15 -789
793 -804 793 -4 0 -5 -26 -1 -57z"/>
</g>
</svg>
