<?xml version="1.0" encoding="UTF-8"?>
<svg xmlns="http://www.w3.org/2000/svg" xmlns:xlink="http://www.w3.org/1999/xlink" width="50rem" height="10rem" viewBox="0 0 150 30.000001" version="1.2">
<defs>
<clipPath id="clip1">
  <path d="M 29.246094 19 L 116.34375 19 L 116.34375 28.003906 L 29.246094 28.003906 Z M 29.246094 19 "/>
</clipPath>
<clipPath id="clip2">
  <path d="M 45 1.179688 L 51 1.179688 L 51 11 L 45 11 Z M 45 1.179688 "/>
</clipPath>
<clipPath id="clip3">
  <path d="M 65 1.179688 L 72 1.179688 L 72 12 L 65 12 Z M 65 1.179688 "/>
</clipPath>
<clipPath id="clip4">
  <path d="M 73 1.179688 L 76 1.179688 L 76 11 L 73 11 Z M 73 1.179688 "/>
</clipPath>
</defs>
<g id="surface1">
<g clip-path="url(#clip1)" clip-rule="nonzero">
<path style=" stroke:none;fill-rule:nonzero;fill:rgb(10.5896%,70.199585%,37.249756%);fill-opacity:1;" d="M 115.574219 28.007812 L 30.015625 28.007812 C 29.589844 28.007812 29.246094 27.664062 29.246094 27.238281 L 29.246094 20.324219 C 29.246094 19.898438 29.589844 19.554688 30.015625 19.554688 L 115.574219 19.554688 C 116 19.554688 116.34375 19.898438 116.34375 20.324219 L 116.34375 27.238281 C 116.34375 27.664062 116 28.007812 115.574219 28.007812 Z M 30.015625 27.238281 L 115.574219 27.238281 L 115.574219 20.324219 L 30.015625 20.324219 L 30.015625 27.238281 "/>
</g>
<path style=" stroke:none;fill-rule:nonzero;fill:rgb(10.5896%,70.199585%,37.249756%);fill-opacity:1;" d="M 65.707031 20.875 L 60.429688 20.875 L 64.496094 26.6875 L 69.773438 26.6875 L 65.707031 20.875 "/>
<path style=" stroke:none;fill-rule:nonzero;fill:rgb(10.5896%,70.199585%,37.249756%);fill-opacity:1;" d="M 54.09375 20.875 L 48.816406 20.875 L 52.882812 26.6875 L 58.160156 26.6875 L 54.09375 20.875 "/>
<path style=" stroke:none;fill-rule:nonzero;fill:rgb(10.5896%,70.199585%,37.249756%);fill-opacity:1;" d="M 59.898438 20.875 L 54.625 20.875 L 58.691406 26.6875 L 63.964844 26.6875 L 59.898438 20.875 "/>
<path style=" stroke:none;fill-rule:nonzero;fill:rgb(10.5896%,70.199585%,37.249756%);fill-opacity:1;" d="M 42.480469 20.875 L 37.207031 20.875 L 41.269531 26.6875 L 46.546875 26.6875 L 42.480469 20.875 "/>
<path style=" stroke:none;fill-rule:nonzero;fill:rgb(10.5896%,70.199585%,37.249756%);fill-opacity:1;" d="M 48.285156 20.875 L 43.011719 20.875 L 47.078125 26.6875 L 52.351562 26.6875 L 48.285156 20.875 "/>
<path style=" stroke:none;fill-rule:nonzero;fill:rgb(10.5896%,70.199585%,37.249756%);fill-opacity:1;" d="M 35.464844 26.6875 L 40.738281 26.6875 L 36.671875 20.875 L 31.398438 20.875 L 35.464844 26.6875 "/>
<path style=" stroke:none;fill-rule:nonzero;fill:rgb(10.5896%,70.199585%,37.249756%);fill-opacity:1;" d="M 71.511719 20.875 L 66.238281 20.875 L 70.304688 26.6875 L 75.578125 26.6875 L 71.511719 20.875 "/>
<path style=" stroke:none;fill-rule:nonzero;fill:rgb(10.5896%,70.199585%,37.249756%);fill-opacity:1;" d="M 30.867188 20.875 L 30.699219 20.875 L 30.699219 26.6875 L 34.933594 26.6875 L 30.867188 20.875 "/>
<path style=" stroke:none;fill-rule:nonzero;fill:rgb(10.5896%,70.199585%,37.249756%);fill-opacity:1;" d="M 77.320312 20.875 L 72.042969 20.875 L 76.109375 26.6875 L 81.386719 26.6875 L 77.320312 20.875 "/>
<path style=" stroke:none;fill-rule:nonzero;fill:rgb(10.5896%,70.199585%,37.249756%);fill-opacity:1;" d="M 83.125 20.875 L 77.851562 20.875 L 81.917969 26.6875 L 87.191406 26.6875 L 83.125 20.875 "/>
<path style=" stroke:none;fill-rule:nonzero;fill:rgb(10.5896%,70.199585%,37.249756%);fill-opacity:1;" d="M 88.933594 20.875 L 83.65625 20.875 L 87.722656 26.6875 L 92.996094 26.6875 L 88.933594 20.875 "/>
<g clip-path="url(#clip2)" clip-rule="nonzero">
<path style=" stroke:none;fill-rule:nonzero;fill:rgb(10.5896%,70.199585%,37.249756%);fill-opacity:1;" d="M 45.609375 1.660156 L 46.808594 1.660156 L 46.808594 9.972656 L 50.789062 9.972656 L 50.789062 10.980469 L 45.609375 10.980469 L 45.609375 1.660156 "/>
</g>
<path style=" stroke:none;fill-rule:nonzero;fill:rgb(10.5896%,70.199585%,37.249756%);fill-opacity:1;" d="M 57.941406 7.578125 C 57.941406 10.054688 56.230469 11.132812 54.613281 11.132812 C 52.804688 11.132812 51.410156 9.804688 51.410156 7.6875 C 51.410156 5.449219 52.875 4.132812 54.726562 4.132812 C 56.644531 4.132812 57.941406 5.53125 57.941406 7.578125 Z M 52.640625 7.648438 C 52.640625 9.113281 53.480469 10.21875 54.671875 10.21875 C 55.832031 10.21875 56.699219 9.125 56.699219 7.621094 C 56.699219 6.484375 56.132812 5.046875 54.699219 5.046875 C 53.261719 5.046875 52.640625 6.375 52.640625 7.648438 "/>
<path style=" stroke:none;fill-rule:nonzero;fill:rgb(10.5896%,70.199585%,37.249756%);fill-opacity:1;" d="M 63.179688 10.980469 L 63.082031 10.136719 L 63.039062 10.136719 C 62.667969 10.664062 61.949219 11.132812 60.996094 11.132812 C 59.640625 11.132812 58.953125 10.179688 58.953125 9.210938 C 58.953125 7.589844 60.386719 6.707031 62.972656 6.71875 L 62.972656 6.582031 C 62.972656 6.027344 62.820312 5.035156 61.453125 5.035156 C 60.832031 5.035156 60.179688 5.226562 59.710938 5.53125 L 59.433594 4.730469 C 59.988281 4.371094 60.789062 4.132812 61.632812 4.132812 C 63.675781 4.132812 64.171875 5.53125 64.171875 6.871094 L 64.171875 9.375 C 64.171875 9.957031 64.199219 10.523438 64.285156 10.980469 Z M 63 7.5625 C 61.671875 7.535156 60.167969 7.773438 60.167969 9.070312 C 60.167969 9.859375 60.691406 10.234375 61.3125 10.234375 C 62.183594 10.234375 62.734375 9.679688 62.929688 9.113281 C 62.972656 8.988281 63 8.851562 63 8.726562 L 63 7.5625 "/>
<g clip-path="url(#clip3)" clip-rule="nonzero">
<path style=" stroke:none;fill-rule:nonzero;fill:rgb(10.5896%,70.199585%,37.249756%);fill-opacity:1;" d="M 71.90625 1.160156 L 71.90625 9.25 C 71.90625 9.847656 71.921875 10.523438 71.964844 10.980469 L 70.871094 10.980469 L 70.816406 9.816406 L 70.789062 9.816406 C 70.417969 10.566406 69.601562 11.132812 68.507812 11.132812 C 66.894531 11.132812 65.652344 9.761719 65.652344 7.730469 C 65.636719 5.503906 67.019531 4.132812 68.648438 4.132812 C 69.671875 4.132812 70.359375 4.617188 70.664062 5.15625 L 70.691406 5.15625 L 70.691406 1.160156 Z M 70.691406 7.011719 C 70.691406 6.859375 70.679688 6.652344 70.636719 6.5 C 70.457031 5.726562 69.792969 5.089844 68.882812 5.089844 C 67.625 5.089844 66.878906 6.195312 66.878906 7.675781 C 66.878906 9.03125 67.542969 10.148438 68.855469 10.148438 C 69.671875 10.148438 70.417969 9.609375 70.636719 8.699219 C 70.679688 8.53125 70.691406 8.367188 70.691406 8.171875 L 70.691406 7.011719 "/>
</g>
<g clip-path="url(#clip4)" clip-rule="nonzero">
<path style=" stroke:none;fill-rule:nonzero;fill:rgb(10.5896%,70.199585%,37.249756%);fill-opacity:1;" d="M 75.277344 2.40625 C 75.292969 2.820312 74.988281 3.152344 74.503906 3.152344 C 74.078125 3.152344 73.773438 2.820312 73.773438 2.40625 C 73.773438 1.976562 74.089844 1.644531 74.53125 1.644531 C 74.988281 1.644531 75.277344 1.976562 75.277344 2.40625 Z M 73.925781 10.980469 L 73.925781 4.285156 L 75.140625 4.285156 L 75.140625 10.980469 L 73.925781 10.980469 "/>
</g>
<path style=" stroke:none;fill-rule:nonzero;fill:rgb(10.5896%,70.199585%,37.249756%);fill-opacity:1;" d="M 77.15625 6.097656 C 77.15625 5.40625 77.144531 4.839844 77.101562 4.285156 L 78.179688 4.285156 L 78.25 5.394531 L 78.277344 5.394531 C 78.609375 4.757812 79.378906 4.132812 80.484375 4.132812 C 81.410156 4.132812 82.847656 4.6875 82.847656 6.984375 L 82.847656 10.980469 L 81.632812 10.980469 L 81.632812 7.121094 C 81.632812 6.042969 81.230469 5.144531 80.085938 5.144531 C 79.285156 5.144531 78.664062 5.710938 78.453125 6.386719 C 78.398438 6.539062 78.371094 6.75 78.371094 6.957031 L 78.371094 10.980469 L 77.15625 10.980469 L 77.15625 6.097656 "/>
<path style=" stroke:none;fill-rule:nonzero;fill:rgb(10.5896%,70.199585%,37.249756%);fill-opacity:1;" d="M 90.582031 4.285156 C 90.554688 4.769531 90.527344 5.308594 90.527344 6.125 L 90.527344 10.011719 C 90.527344 11.546875 90.222656 12.488281 89.574219 13.066406 C 88.925781 13.675781 87.984375 13.871094 87.144531 13.871094 C 86.34375 13.871094 85.457031 13.675781 84.917969 13.316406 L 85.222656 12.390625 C 85.664062 12.667969 86.355469 12.917969 87.183594 12.917969 C 88.425781 12.917969 89.339844 12.265625 89.339844 10.578125 L 89.339844 9.832031 L 89.3125 9.832031 C 88.9375 10.453125 88.222656 10.953125 87.183594 10.953125 C 85.527344 10.953125 84.339844 9.542969 84.339844 7.6875 C 84.339844 5.421875 85.816406 4.132812 87.351562 4.132812 C 88.511719 4.132812 89.144531 4.742188 89.4375 5.296875 L 89.464844 5.296875 L 89.519531 4.285156 Z M 89.324219 6.929688 C 89.324219 6.71875 89.3125 6.539062 89.257812 6.375 C 89.035156 5.667969 88.441406 5.089844 87.558594 5.089844 C 86.398438 5.089844 85.570312 6.070312 85.570312 7.621094 C 85.570312 8.933594 86.230469 10.027344 87.542969 10.027344 C 88.289062 10.027344 88.964844 9.554688 89.230469 8.78125 C 89.296875 8.574219 89.324219 8.339844 89.324219 8.132812 L 89.324219 6.929688 "/>
<path style=" stroke:none;fill-rule:nonzero;fill:rgb(10.5896%,70.199585%,37.249756%);fill-opacity:1;" d="M 92.621094 10.261719 C 92.621094 9.75 92.964844 9.390625 93.449219 9.390625 C 93.933594 9.390625 94.261719 9.75 94.261719 10.261719 C 94.261719 10.757812 93.945312 11.132812 93.433594 11.132812 C 92.953125 11.132812 92.621094 10.757812 92.621094 10.261719 "/>
<path style=" stroke:none;fill-rule:nonzero;fill:rgb(10.5896%,70.199585%,37.249756%);fill-opacity:1;" d="M 95.480469 10.261719 C 95.480469 9.75 95.824219 9.390625 96.308594 9.390625 C 96.789062 9.390625 97.121094 9.75 97.121094 10.261719 C 97.121094 10.757812 96.804688 11.132812 96.292969 11.132812 C 95.808594 11.132812 95.480469 10.757812 95.480469 10.261719 "/>
<path style=" stroke:none;fill-rule:nonzero;fill:rgb(10.5896%,70.199585%,37.249756%);fill-opacity:1;" d="M 98.335938 10.261719 C 98.335938 9.75 98.683594 9.390625 99.167969 9.390625 C 99.648438 9.390625 99.980469 9.75 99.980469 10.261719 C 99.980469 10.757812 99.664062 11.132812 99.152344 11.132812 C 98.667969 11.132812 98.335938 10.757812 98.335938 10.261719 "/>
</g>
</svg>
