<svg width="35" height="50" viewBox="0 0 35 50" fill="none" xmlns="http://www.w3.org/2000/svg">
<path fill-rule="evenodd" clip-rule="evenodd" d="M32.7452 18.4375C32.4327 17.8125 32.4327 16.875 32.7452 16.25L34.6202 12.5C35.2452 11.25 34.6202 9.6875 33.0577 9.0625L28.9952 7.5C28.3702 7.1875 27.7452 6.5625 27.4327 5.9375L25.8702 1.875C25.5577 0.625 24.6202 0 23.6827 0C23.3702 0 22.7452 0 22.4327 0.3125L18.3702 2.1875H17.4327C17.1202 2.1875 16.8077 2.1875 16.4952 1.875L12.4327 0.3125C12.1202 0 11.4952 0 11.1827 0C10.2452 0 9.30769 0.625 8.68269 1.5625L7.12019 5.9375C7.12019 6.5625 6.49519 7.1875 5.87019 7.5L1.49519 9.0625C0.245191 9.375 -0.379809 10.9375 0.24519 12.5L2.12019 16.5625C2.43269 17.1875 2.43269 18.125 2.12019 18.75L0.24519 22.5C-0.379809 23.75 0.24519 25.3125 1.80769 25.9375L5.87019 27.5C6.49519 27.8125 7.12019 28.4375 7.43269 29.0625L8.99519 33.125C9.30769 34.375 10.2452 35 11.1827 35C11.4952 35 11.8077 35 12.1202 34.6875L16.1827 32.8125C16.3389 32.8125 16.4952 32.7344 16.6514 32.6562C16.8077 32.5781 16.9639 32.5 17.1202 32.5C17.4327 32.5 17.7452 32.5 18.0577 32.8125L22.1202 34.6875C22.4327 35 22.7452 35 23.0577 35C23.9952 35 24.9327 34.375 25.5577 33.4375L27.1202 29.375C27.4327 28.75 28.0577 28.125 28.6827 27.8125L32.7452 26.25C33.9952 25.625 34.9327 24.0625 34.3077 22.8125L32.7452 18.4375ZM17.4327 30C10.5577 30 4.93269 24.375 4.93269 17.5C4.93269 10.625 10.5577 5 17.4327 5C24.3077 5 29.9327 10.625 29.9327 17.5C29.9327 24.375 24.3077 30 17.4327 30ZM23.6827 38.125C22.9409 38.125 22.3947 37.9293 21.7345 37.6928L21.7344 37.6928C21.5603 37.6304 21.3783 37.5652 21.1827 37.5L17.4327 35.9375L13.6827 37.5C13.0577 37.8125 12.1202 38.125 11.1827 38.125C10.5577 38.125 10.2452 38.125 9.62019 37.8125L8.05769 50L17.4327 43.75L26.8077 50L24.9327 37.8125C24.6202 38.125 23.9952 38.125 23.6827 38.125ZM24.0618 24.1291C25.82 22.371 26.8077 19.9864 26.8077 17.5C26.8077 15.0136 25.82 12.629 24.0618 10.8709C22.3037 9.11272 19.9191 8.125 17.4327 8.125C14.9463 8.125 12.5617 9.11272 10.8036 10.8709C9.04541 12.629 8.05769 15.0136 8.05769 17.5C8.05769 19.9864 9.04541 22.371 10.8036 24.1291C12.5617 25.8873 14.9463 26.875 17.4327 26.875C19.9191 26.875 22.3037 25.8873 24.0618 24.1291Z" fill="#BBBBBB"/>
</svg>
